<svg width="847" height="151" viewBox="0 0 847 151" fill="none" xmlns="http://www.w3.org/2000/svg">
<path d="M38.6731 148.712L5.67357 64.4842C4.3887 61.2048 6.80683 57.6603 10.329 57.6603H208.022C211.446 57.6603 213.857 61.0252 212.756 64.2679L184.083 148.712M74.3462 80.7628V29.8013C75.778 13.3649 79.185 8.68218 87.4181 5.33732C87.9821 5.10815 88.5877 5 89.1966 5H138.605C139.025 5 139.445 5.05077 139.849 5.16481C147.621 7.36021 150.267 12.2287 150.109 29.8013V80.7628" stroke="#1C8076" stroke-width="10"/>
<path d="M206.312 144V141.984L215.72 138.144L243.464 65.28H245L271.208 140.544L280.04 141.984V144H251.816V141.984L259.688 140.736L251.528 117.984H225.992L218.216 138.144L226.856 141.984V144H206.312ZM226.76 115.968H250.856L239.336 82.176L226.76 115.968ZM281.84 144V141.984L290.672 140.544V70.656L281.84 69.312V67.2H310.064V69.312L301.232 70.656V141.696H329.936L337.808 120.576H340.4V144H281.84ZM381.373 145.92C371.965 145.92 365.085 143.84 360.733 139.68C356.381 135.456 354.205 129.888 354.205 122.976V70.656L345.373 69.312V67.2H373.597V69.312L364.765 70.656V122.976C364.765 129.248 366.525 134.08 370.045 137.472C373.565 140.8 378.909 142.464 386.077 142.464C399.645 142.464 406.429 135.968 406.429 122.976V73.056L397.501 69.312V67.2H417.949V69.312L408.733 73.056V122.976C408.733 130.656 406.589 136.416 402.301 140.256C398.013 144.032 391.037 145.92 381.373 145.92ZM480.022 144.96C476.438 144.96 473.75 144.096 471.958 142.368C470.166 140.64 468.95 137.696 468.31 133.536L466.486 120.672C465.846 116.32 464.342 112.928 461.974 110.496C459.67 108 456.054 106.752 451.126 106.752H443.638V140.544L452.47 141.984V144H424.246V141.984L433.078 140.544V70.656L424.246 69.312V67.2H451.126C461.558 67.2 469.11 68.832 473.782 72.096C478.454 75.36 480.79 80.32 480.79 86.976C480.79 97.984 474.134 104.352 460.822 106.08V106.656C465.75 107.36 469.686 109.12 472.63 111.936C475.638 114.752 477.526 118.496 478.294 123.168L479.542 131.424C480.054 135.008 480.63 137.44 481.27 138.72C481.974 140 483.03 140.64 484.438 140.64C485.398 140.64 486.422 140.352 487.51 139.776C488.598 139.136 489.622 138.336 490.582 137.376L492.214 139.104C490.358 141.216 488.438 142.72 486.454 143.616C484.47 144.512 482.326 144.96 480.022 144.96ZM454.39 104.448C459.062 104.448 462.678 103.04 465.238 100.224C467.862 97.344 469.174 93.12 469.174 87.552V85.536C469.174 74.912 463.158 69.6 451.126 69.6H443.638V104.448H454.39ZM487.468 144V141.984L496.876 138.144L524.62 65.28H526.156L552.364 140.544L561.196 141.984V144H532.972V141.984L540.844 140.736L532.684 117.984H507.148L499.372 138.144L508.012 141.984V144H487.468ZM507.916 115.968H532.012L520.492 82.176L507.916 115.968ZM596.655 145.92C589.679 145.92 583.567 144.224 578.319 140.832C573.071 137.44 569.007 132.704 566.127 126.624C563.311 120.544 561.903 113.536 561.903 105.6C561.903 97.664 563.407 90.656 566.415 84.576C569.423 78.496 573.615 73.76 578.991 70.368C584.431 66.976 590.639 65.28 597.615 65.28C604.207 65.28 609.775 66.944 614.319 70.272L620.175 65.28H622.191V89.088H620.175L613.839 73.248C609.231 69.408 603.823 67.488 597.615 67.488C593.135 67.488 589.103 68.64 585.519 70.944C581.999 73.248 579.215 76.608 577.167 81.024C575.183 85.44 574.191 90.688 574.191 96.768V114.336C574.191 120.416 575.119 125.664 576.975 130.08C578.895 134.496 581.519 137.888 584.847 140.256C588.239 142.56 592.175 143.712 596.655 143.712C602.159 143.712 606.415 142.016 609.423 138.624C612.495 135.232 614.031 130.688 614.031 124.992V116.064L605.103 114.72V112.608H633.807V114.72L624.879 116.064V124.992C624.879 128.64 623.887 132.064 621.903 135.264C619.919 138.4 616.815 140.96 612.591 142.944C608.367 144.928 603.055 145.92 596.655 145.92ZM638.653 144V141.984L647.484 140.544V70.656L638.653 69.312V67.2H696.445V89.184H693.853L686.461 69.6H658.045V104.16H670.525L676.189 90.24H678.685V120.576H676.189L670.429 106.464H658.045V141.696H688.189L696.061 120.576H698.557V144H638.653ZM707.84 144V141.984L716.672 140.544V70.656L707.84 69.312V67.2H765.632V89.184H763.04L755.648 69.6H727.232V104.16H739.712L745.376 90.24H747.872V120.576H745.376L739.616 106.464H727.232V141.696H757.376L765.248 120.576H767.744V144H707.84ZM777.028 144V141.984L785.859 140.544V70.656L777.028 69.312V67.2H805.252V69.312L796.42 70.656V105.216L827.62 73.344L817.156 69.312V67.2H839.332V69.312L831.46 73.344L809.668 95.232L840.388 140.544L846.916 141.984V144H818.596V141.984L827.332 140.64L802.18 102.72L796.42 108.576V140.544L805.252 141.984V144H777.028Z" fill="#1C8076"/>
</svg>
